<svg xmlns="http://www.w3.org/2000/svg" viewBox="0 0 1024 1024" xml:space="preserve">
  <path d="M0 0h1024v1024H0z" fill="#fdfdfe"/>
  <path d="M694.523 128.016c11.377 9.116 19.249 20.438 25.05 33.74 3.141 7.08 6.144 9.946 12.997 13.373 17.373 9.478 38.715 29.157 46.602 47.613 2.558 3.16 5.23 3.503 9.086 4.502 4.422 1.22 8.513 3.107 12.68 5.006l2.628 1.19c7.226 3.336 14.745 6.871 20.434 12.56-.906 10.014-7.04 18.627-11.998 27.144-5.737 8.878-5.737 8.878-6.564 18.883q.76 1.995 1.562 3.973l.36 3.879c.801 7.735.801 7.735 5.562 13.547 2.993 1.749 6.136 3.18 9.275 4.644 4.806 2.48 8.775 6.374 12.803 9.93l2.727 2.36c9.206 8.092 9.206 8.092 12.273 12.64-.21 4.12-2.834 6.163-5.664 8.922l-1.425 1.405a842 842 0 0 1-4.536 4.423 838 838 0 0 0-8.75 8.645 117 117 0 0 1-4.9 4.617c-3.044 2.899-4.556 4.812-5.164 9.042-.027 3.521.184 6.94.501 10.446.08 1.204.16 2.408.24 3.648q.3 4.43.698 8.852l2.898-.121c4.728.01 9.142.974 13.727 2.058l2.742.648C852.85 408.74 864.563 414.161 876 420c-.543 4.89-2.144 8.657-4.437 12.938-3.589 6.968-6.927 14.031-10.125 21.187l-1.375 2.98c-2.669 6.044-3.74 9.465-1.342 15.8.87 2.137 1.84 4.203 2.841 6.283l.94 2.154c1.842 3.816 3.258 5.945 7.307 7.451q2.091.618 4.191 1.207 1.872.723 3.719 1.508c.92.39.92.39 1.86.786C893.692 498.396 906.556 505.987 919 515c-.508 5.179-3.149 8.845-5.875 13.125q-1.49 2.4-2.977 4.805l-1.56 2.51a993 993 0 0 0-7.838 12.81l-1.484 2.38c-2.616 4.33-2.616 4.33-3.184 9.245L897 563q.398 2.522.777 5.047c1.97 11.602 1.97 11.602 9.203 20.3 3.805 2.19 7.798 3.934 11.834 5.648 10.018 4.606 18.26 13.488 26.186 21.005l2.121 1.89c1.692 1.548 1.692 1.548 3.879 4.11-.49 4.461-3.493 7.169-6.375 10.375-4.82 5.48-9.452 11.056-13.871 16.865-2.335 3.051-4.724 5.688-7.567 8.26-2.097 2.38-2.188 3.39-2.167 6.64.488 3.67 1.224 7.237 1.98 10.86l.215 3.105c.33 4.191.617 6.895 3.902 9.707a156 156 0 0 0 5.68 3.258c5.561 3.35 10.026 7.935 14.666 12.44a438 438 0 0 0 4.303 4.1c7.002 6.744 13.9 14.105 17.234 23.39-5.699 4.812-11.416 9.588-17.296 14.177q-1.775 1.393-3.53 2.814c-2.776 2.235-5.373 4.12-8.506 5.86-4.277 2.58-7.022 4.695-8.337 9.689-1.185 7.5-1.997 16.658 1.816 23.525 2.869 3.491 6.424 6.006 10.096 8.594 2.897 2.21 5.185 4.86 7.507 7.654l1.347 1.608C957.944 811.13 968 823.654 968 833c-1.43 1.192-1.43 1.192-3.445 2.348l-2.245 1.32-2.435 1.394C951.566 842.97 943.772 848.286 936 854l-1.92 1.263c-4.322 2.78-4.322 2.78-5.893 7.612.295 3.358 1.266 4.982 3.555 7.41 3.17 3.536 5.714 7.237 8.196 11.278l1.293 2.092C955.296 906.739 955.296 906.739 955 919c-7.752 3.698-15.663 6.915-23.653 10.057-4.886 1.928-9.682 3.965-14.432 6.206C915 936 915 936 912 936l-.41 2.105c-2.317 10.946-5.972 21.313-9.59 31.895h-24c.725-5.073 1.374-8.445 3.063-13.062 6.03-17.263 10.351-35.375 14.14-53.25a239 239 0 0 1 2.36-9.813c3.453-13.695 5.255-27.506 6.745-41.527.314-2.95.643-5.897.973-8.844 2.096-19.13 2.947-38.265 2.969-57.504l.005-2.427c.002-14.289-.678-28.506-1.63-42.76l-.191-2.872a1039 1039 0 0 0-2.473-30.117l-.245-2.56c-.326-3.24-.683-6.164-1.716-9.264a161 161 0 0 1-.648-5.305l-.354-3.187-.373-3.383c-.892-7.781-1.922-15.331-3.879-22.926-1.12-4.8-1.794-9.656-2.522-14.528-.937-6.135-2.08-12.211-3.322-18.292l-.556-2.755q-.67-3.312-1.346-6.624l-.044 3.706c-.06 4.647-.136 9.293-.218 13.94q-.05 2.985-.084 5.97c-.158 13.264-1.158 26.071-3.303 39.163-.684 4.325-1.191 8.672-1.726 13.018C879.303 716.945 867.593 739.919 853 757l-1.304 1.542C837.253 775.437 820.062 786.69 800 796l-3.227 1.52C784.04 803.067 770.466 805.778 757 809l-2 51 11.75-.187c11.7-.058 22.8.81 34.25 3.187l2.424.488C828.079 868.633 852.91 883.718 867 905l-1 2-1.984-1.32c-28.92-18.872-65.638-27.906-99.943-21.13-13.978 3.032-27.253 7.09-40.073 13.45l-1.908.93c-29.683 14.587-51.904 37.683-69.777 65.122L651 966l-1.072 2.224c-3.262 3.005-7.15 2.264-11.408 2.167l-2.813-.018c-2.965-.022-5.93-.072-8.894-.123q-3.015-.03-6.03-.055A1918 1918 0 0 1 606 970c.513-3.982 1.214-6.896 3.371-10.285l1.475-2.338 1.591-2.44c.542-.84 1.083-1.682 1.64-2.549A232 232 0 0 1 629 932l1.323-1.63c9.498-11.666 19.75-22.139 31.677-31.37l1.59-1.264c17.197-13.623 37.337-24.487 58.472-30.423l3.065-.893A194 194 0 0 1 744 862l.228-1.937c.353-2.96.719-5.917 1.085-8.875l.357-3.045c.638-5.087 1.467-9.92 2.9-14.846 2.773-9.644 3.29-20.546-1.008-29.797-7.249-12.246-17.981-21.843-31.847-25.805-18.056-3.38-30.23-.219-45.98 9.07-6.761 3.967-13.738 7.596-21.735 7.235 1.202 2.091 1.202 2.091 3 4 2.05.363 2.05.363 4.32-.09l2.697-.386c4.391-.771 8.779-1.56 13.16-2.392 35.878-6.738 35.878-6.738 47.565 1.102L721 798l2.258 1.64c6.024 4.758 10.116 9.975 11.219 17.696.393 9.551-1.753 16.135-7.79 23.476C715.638 849.808 706.024 851.5 692 851v-2l-2.867-.113c-7.596-.359-14.959-1.099-22.446-2.45Q662.348 845.7 658 845l-2.879-.477c-9.218-.779-17.895 4.078-26.119 7.743C627 853 627 853 624 853l-.078 1.957c-1.397 23.203-8.155 48.597-18.939 69.133-1.131 2.198-2.194 4.424-3.256 6.656-5.075 10.573-10.583 20.773-17.424 30.324-1.365 1.927-1.365 1.927-2.407 4.172-1.426 2.56-2.506 4.039-4.896 5.758-5.32.991-10.506.755-15.875.5q-2.199-.06-4.398-.11A497 497 0 0 1 546 971c1.789-3.81 4.226-6.685 7-9.812 20.573-23.898 36.494-55.313 43.695-85.972 1.208-5.12 1.208-5.12 2.305-6.216.285-1.427.515-2.864.719-4.305l.386-2.71.395-2.86.395-2.742c1.475-10.49 2.255-20.8 2.203-31.395l-.005-3.316a4941 4941 0 0 0-.03-10.36q-.009-3.537-.014-7.076-.017-8.617-.049-17.236l-2.362-.889c-9.431-3.972-16.161-15.404-20.076-24.423-1.609-2.769-2.685-3.644-5.25-5.438-9.155-6.441-15.442-16.294-17.968-27.137-.371-2.28-.442-4.492-.532-6.8-.987-11.104-9.278-20.743-15.812-29.313l-2.156-2.965c-4.518-6.18-9.306-11.926-14.524-17.527a161 161 0 0 1-5.57-6.383c-13.473-15.384-30.32-27.46-47.36-38.558-3.457-2.267-6.89-4.568-10.326-6.867-10.112-6.765-20.239-13.506-30.439-20.138l-2.446-1.59c-3.047-1.975-6.087-3.918-9.218-5.757L417 592v-1c5.618-.432 9.82 1.11 15 3l2.883.96C465.64 605.412 494.425 620.659 519 642l3.02 2.613c6.735 5.94 12.452 12.288 17.98 19.387q2.46 3.07 4.938 6.125l2.214 2.758c1.674 2.188 1.674 2.188 3.848 3.117l.367-2.082.508-2.73.492-2.708C553 666 553 666 555 663c-.92-11.703-20.834-26.367-29.125-33.812A248 248 0 0 0 522 626l-2.664-2.176C500.52 608.891 480.095 597.262 458 588l-2.562-1.113c-13.671-5.768-28.085-9.555-42.592-12.505a182 182 0 0 1-4.49-1c-16.08-3.66-32.953-3.947-49.356-3.382l-2.728.092c-19.468.821-40.171 4.54-58.272 11.908l-3.555 1.387q-3.345 1.31-6.687 2.625C285 587 285 587 283 587l-.785 2.672c-3.392 9.29-10.573 15.942-17.992 22.137-2.31 2.276-2.633 3.144-3.223 6.191l1.506-.99C281.533 604.565 309.133 587.836 333 589v2c-2.053 1.474-2.053 1.474-4.95 3.203l-3.23 1.951-1.733 1.035c-2.994 1.79-5.972 3.604-8.95 5.42l-1.83 1.115c-8.214 5.027-16.182 10.422-24.154 15.825a426 426 0 0 1-5.66 3.748C270.384 631.199 259.442 640.032 249 650l-2.527 2.402c-2.827 2.715-2.827 2.715-5.473 5.598v2c1.718 1.366 1.718 1.366 3.875 2.625l2.18 1.352c1.874 1.178 1.874 1.178 3.945 1.023l1.625-2.062c3.086-3.818 6.633-6.779 10.375-9.938l2.695-2.355c7.347-6.318 14.99-11.68 23.305-16.645l3.379-2.059c16.634-9.716 36.114-15.12 55.121-17.566L358 613l7-28h17c2.586 6.335 4.337 12.798 6.035 19.414A143 143 0 0 0 391 614l2.063.297C432.92 620.445 471.69 638.164 501 666a521 521 0 0 0 3.875 3.25C516.411 679.373 525.579 691.239 534 704l1.167 1.762c5.356 8.165 9.795 16.733 14.01 25.526a268 268 0 0 0 2.038 4.13c3.285 6.82 5.159 14.176 7.182 21.445a345 345 0 0 0 1.705 5.797c2.182 7.522 3.571 14.964 4.648 22.715l.387 2.774c.732 5.665.98 11.14.863 16.851l2.23.586 2.957.789 2.918.773c2.895.852 2.895.852 5.32 1.891 3.226 1.308 3.226 1.308 9.575 1.961v19l-8.562 2.875-2.655.894A271 271 0 0 1 564 838l-.196 1.75c-1.485 12.874-3.58 24.992-7.804 37.25l-.782 2.315c-6.388 18.757-14.978 36.578-26.835 52.529-1.348 2.101-1.95 3.716-2.383 6.156 5.037-3.969 9.366-8.37 13.5-13.25l1.29-1.514c7.624-9.147 14.242-19.087 20.835-28.986l1.165-1.743c6.26-9.38 12.233-18.9 17.97-28.611l1.615-2.716 1.398-2.384C585 857 585 857 587 856c-1.635 29.968-18.72 62.152-36 86l-1.23 1.7c-6.047 8.28-12.694 15.883-19.77 23.3l-1.35 1.633c-2.214 1.834-3.545 1.73-6.397 1.708l-2.911-.001-3.135-.047-3.216-.013c-3.393-.017-6.785-.054-10.178-.092q-3.45-.024-6.897-.042-8.458-.05-16.916-.146a852 852 0 0 1-1.5-5.687l-.844-3.2c-.605-2.87-.965-5.201-.656-8.113 2.336-2.457 2.336-2.457 5.375-4.812l3.023-2.395C487 944 487 944 489 944v-3l-1.766-.82c-2.233-1.18-4.018-2.475-5.984-4.055-4.94-3.913-9.981-7.678-15.05-11.421-5.886-4.382-11.545-9.029-17.2-13.704l.823 3.535 3.802 16.34.69 2.966a12115 12115 0 0 1 8.883 38.39l.646 2.812.59 2.568a291 291 0 0 0 1.722 6.815C467 988 467 988 467 992c-8.162.339-15.95-.701-24-2q-.97-4.624-1.937-9.25a4478 4478 0 0 1-5.258-25.543l-1.18-5.802q-.883-4.34-1.761-8.683c-2.01-9.952-4.089-19.87-6.459-29.743-1.632-6.833-3.001-13.71-4.342-20.604-1.954-9.906-3.98-19.79-6.164-29.65a908 908 0 0 1-3.438-16.31l-.799-3.948q-.768-3.81-1.52-7.623c-3.08-15.242-8.571-31.057-21.56-40.625-2.473-1.565-4.957-2.927-7.582-4.219l-2.04-1.031c-7.515-3.134-15.982-2.216-23.96-1.969v2l3.25.125c10.497 1.372 19.947 8.042 26.75 15.875 6.589 9.395 10.22 18.94 11.563 30.375.299 3.542.299 3.542 1.406 6.441 1.394 4.304 1.828 8.584 2.37 13.063.484 3.423 1.258 6.74 2.063 10.101 1.78 7.535 3.015 15.13 4.223 22.77q.638 4.024 1.29 8.047l.56 3.542c.251 2.573.251 2.573 1.525 3.661.185 1.37.323 2.747.438 4.125.289 2.886.69 5.32 1.5 8.125 1.262 4.456 1.876 8.885 2.5 13.469.604 3.528 1.557 6.846 2.562 10.281 1.967 8.451 3.335 16.703 3.691 25.39.137 2.842.137 2.842 2.309 5.61.598 2.566.598 2.566 1.063 5.563l.472 2.94c.597 4.49 1.038 8.989 1.465 13.497-3.98.029-7.958.047-11.937.063l-3.444.025-3.271.01-3.031.016C402 990 402 990 401 989a66 66 0 0 1-.535-4.035l-.264-2.451-.264-2.577-.275-2.587q-.336-3.175-.662-6.35h-2a4696 4696 0 0 0-1.375-10.375l-.383-2.926c-.727-5.417-1.604-10.76-2.715-16.112-1.02-5.01-1.885-10.052-2.777-15.087l-.637-3.59q-.51-2.865-1.016-5.728-1.161-6.553-2.335-13.103-.835-4.676-1.666-9.351l-.817-4.568q-.574-3.207-1.142-6.414l-.666-3.729C381 877 381 877 381 874l-2.676 1.645C367.275 882.294 358.09 885.56 345 885l-.301 1.667c-1.357 7.153-3.156 14.162-5.048 21.19q-.782 2.911-1.553 5.825c-1.637 6.114-3.342 12.19-5.23 18.232A168 168 0 0 0 329 946.563c-1.57 6.975-3.563 13.708-6 20.437h-1c-.28-7.986.167-15.801.875-23.75 1.254-14.188 2.19-28.387 2.935-42.61q.174-3.351.373-6.702c.138-2.417.238-4.83.317-7.25l.156-3.739c-.38-3.175-.38-3.175-3.25-4.992L320 876c-2.395-1.93-4.7-3.958-7-6l-.7 3.2a1337 1337 0 0 1-5.675 24.8c-3.959 16.54-7.863 33.082-11.25 49.75-1.503 7.385-3.205 14.573-5.398 21.785-1.46 5.178-2.567 10.427-3.67 15.691C285.1 990.9 285.1 990.9 284 992a108 108 0 0 1-5.566.098l-3.409-.01-3.587-.025-3.6-.014q-4.419-.018-8.838-.049c1.12-6.434 2.344-12.791 3.938-19.125l.522-2.083c.914-3.573 1.922-7.07 3.165-10.542 1.131-3.189 1.735-6.247 2.219-9.594 1.173-7.28 3.075-14.303 5.031-21.406q1.088-4.006 2.172-8.016l1.037-3.822c1.063-3.96 2.066-7.93 3.041-11.912 1.776-7.246 3.752-14.433 5.77-21.615l.738-2.658.653-2.326a158 158 0 0 0 1.623-7.478c1.841-9.351 4.193-18.591 6.466-27.845q.875-3.577 1.728-7.156c.83-3.478 1.681-6.95 2.538-10.422l.748-3.195c2.29-9.11 6.26-16.8 12.798-23.617a190 190 0 0 0 8.86-10.115c11.705-14.294 24.765-22.111 43.25-24.499 15.381-.67 30.337 6.155 42.015 15.801 4.102 3.795 7.427 8.104 10.688 12.625l2.188 2.938c4.92 8.314 6.83 17.091 8.8 26.437 1.171 5.495 2.657 10.886 4.18 16.293.832 3.332.832 3.332 1.383 7.195.109 2.997.109 2.997 1.449 4.137 5.445-24.146 5.265-47.798-7.949-69.352C418.218 765.23 402.87 754.4 385.125 750c-13.099-2.285-25.727-2.13-38.125 3l-3.043 1.215c-7.78 3.472-13.523 8.518-19.525 14.398-2.216 2.147-4.51 4.203-6.807 6.262l-2.457 2.219c-1.692 1.488-3.45 2.9-5.23 4.281-14.177 12.668-20.477 29.239-24.438 47.375l-1.293 5.805c-.205.929-.41 1.858-.623 2.815-.779 3.506-1.585 7.006-2.397 10.505l-.707 3.055L280 853c-6.334-.532-12.559-1.371-18.82-2.46-4.542-.77-9.1-1.42-13.66-2.075C245 848 245 848 244 847a72 72 0 0 0-4.035-.754l-2.451-.4-2.577-.409-2.587-.42q-3.174-.512-6.35-1.017c4.265 14.332 8.745 27.907 16 41a1542 1542 0 0 1 3.357 6.24q1.05 1.95 2.118 3.891c1.587 2.913 2.948 5.584 3.525 8.869 2.852-2.718 5.164-5.478 7.383-8.73l1.847-2.682 3.813-5.586 1.84-2.67 1.668-2.446C269 880 269 880 271 879c-1.102 5.9-2.384 11.753-3.766 17.594l-.524 2.22a3583 3583 0 0 1-6.064 25.107l-1.935 7.929c-7.362 30.175-7.362 30.175-10.711 42.15-4.218-1.539-6.343-4.656-8.937-8.125q-1.47-1.928-2.946-3.852l-1.548-2.02a187 187 0 0 0-4.686-5.714C220.788 943.548 213.24 932.058 206 920l-1.23-2.025C194.726 901.22 188.28 881.743 183 863l-1.078-3.574c-5.625-20.085-6.194-40.77-6.172-61.489l.002-2.774c.056-22.671.056-22.671 2.658-33.44.622-2.87 1.086-5.753 1.547-8.653 1.266-7.822 3.136-14.978 5.797-22.457 1.21-3.511 2.182-7.02 3.121-10.613 2.151-7.77 5.54-14.811 9.125-22h1c.162 6.51-.475 12.736-1.312 19.188-1.362 10.868-2.537 21.748-3.628 32.647-.61 6.039-1.3 12.036-2.185 18.04a190 190 0 0 0-1.219 15.977l-.074 2.124c-.238 7.007-.42 14.015-.582 21.024l10-2-.14-5.062c-.696-36.222 7.426-73.399 27.523-104.043.914-2.805-.171-4.261-1.383-6.895a82 82 0 0 0-2.855-4.215l-1.635-2.33a488 488 0 0 0-3.43-4.773c-4.058-5.836-4.058-5.836-4.166-9.944 1.194-3.01 2.578-5.128 4.649-7.613l1.94-2.367L222 656l-2.781 1.61-3.719 2.14-1.82 1.055-1.836 1.054-1.891 1.091C208 664 208 664 205.924 664.884c-5.73 2.466-8.091 5.485-10.987 10.928l-1.272 2.283C186.96 690.297 181.641 702.888 177 716l-1.344 3.746c-4.976 14.338-7.988 28.493-9.369 43.594-.22 2.042-.489 4.08-.777 6.113-1.365 9.745-1.822 19.274-1.77 29.11.01 2.435 0 4.87-.013 7.304-.01 10.216.793 20.025 2.273 30.133q.345 2.809.684 5.617c1.692 12.385 4.796 24.081 8.629 35.946l.685 2.145c3.273 10.156 7.285 19.727 12.002 29.292l1.58 3.243c6.786 13.763 14.138 26.543 23.42 38.757q1.307 1.762 2.61 3.527c2.804 3.79 5.623 7.552 8.64 11.176C226 968 226 968 226 970c-21.723 2.337-21.723 2.337-28.134-1.166-3.539-3.22-5.647-7.27-7.72-11.532-1.199-2.408-2.537-4.673-3.943-6.966-5.339-8.756-10.08-17.789-14.547-27.016-1.548-3.23-1.548-3.23-3.195-5.804-1.837-3.163-3.089-6.467-4.336-9.891l-.785-2.13c-3.636-9.94-6.935-19.98-9.965-30.12l-.654-2.153c-1.323-4.474-2.137-8.854-2.846-13.472-.802-3.635-1.214-5.226-4.152-7.555-2.897-1.373-5.637-2.32-8.723-3.195l-2.208-.802c-6.62-2.294-12.067-2.36-18.98-1.573l-3.046.302a161 161 0 0 0-16.954 2.698c-10.59 2.261-18.379 2.619-28.046-2.797C60.148 841.793 55.118 836.02 53 827c-.95-7.833-.11-14.59 4.477-21.094C62.786 799.41 68.88 795.208 77 793a96 96 0 0 1 7.875-.25l2.027-.023c4.147.016 7.763.599 11.786 1.703 5.033 1.241 10.193 1.903 15.312 2.695l3.504.55q4.246.668 8.496 1.325v-2q3.12-1.261 6.25-2.5l3.516-1.406C139 792 139 792 143 792l-.07-1.887c-.686-35.11 8.095-72.906 23.164-104.531l1.108-2.327q1.094-2.283 2.207-4.557c2.034-4.157 2.034-4.157 2.591-8.698-2.197-1.405-2.197-1.405-5.062-2.75-18.86-10.589-31.844-30.189-37.934-50.586-4.933-19.118-5.733-41.893.996-60.664l1.063-3.312c8.89-25.684 28.98-46.19 52.507-59.098A62 62 0 0 1 190 491l2.46-.86c7.777-2.417 15.449-2.823 23.54-3.14l-.656-2.79c-3.188-14.491-4.29-28.019 3.656-41.21 4.086-5.679 8.887-10.639 16-12 7.67-.875 14.224-1.435 20.563 3.563A105 105 0 0 1 260 439l1.836 1.844c5.948 6.383 7.667 12.501 7.476 21.031l-.025 2.476c-.16 8.288-1.111 16.452-2.287 24.649l1.984.445C280.933 492.382 292.953 497.43 300 508a114 114 0 0 0 8.5 2.438c6.733 1.757 13.112 3.777 19.5 6.562 6.32 2.787 6.32 2.787 13 2 2.488-1.419 4.86-2.87 7.25-4.437q2.16-1.38 4.324-2.754l2.232-1.423c20.684-13.07 42.824-25.435 65.944-33.574l2.18-.786c3.113-1.101 6.009-2.015 9.273-2.585 3.387-.685 5.096-1.232 7.797-3.441 3.52-5.61 5.91-11.821 8.235-18 .765-2 .765-2 1.765-4l-17.168 1.846q-3.728.4-7.457.791c-1.949.21-3.896.429-5.84.675-8.923 1.076-17.935.93-26.91.938l-2.708.004c-12.873-.004-25.312-.407-37.917-3.254l-3.094-.621c-17.57-4.065-33.726-14.668-46.004-27.586-1.872-2.017-1.872-2.017-4.902-2.793l-1 3c-3.616-1.205-3.78-1.895-5.488-5.164l-1.384-2.632-1.44-2.829-1.478-2.863C277 387.452 277 387.452 277 382l-2.23-.848c-10.53-4.38-17.087-12.248-22.02-22.402-.62-1.569-1.2-3.155-1.75-4.75l-1.125-3.227c-2.225-7.217-3.235-13.9-3.25-21.46l-.005-2.264c.084-4.315.593-8.358 1.411-12.596.861-4.851 1.101-9.542 1.024-14.457l-.034-2.11a739 739 0 0 0-.213-8.616c-.408-14.222 2.197-25.784 12.227-36.43 9.632-9.088 19.53-12.524 32.586-12.246 6.747.406 12.308 3.273 17.034 8.095 5.23 5.177 8.98 6.39 16.24 6.381l2.838.063c3.029.045 6.051.026 9.08-.008l3.133-.01c16.89-.127 29.978-2.524 45.036-10.55 4.206-2.181 8.538-4.011 12.895-5.867 5.072-2.164 10.096-4.432 15.123-6.698l2.412-1.08c16.168-7.278 31.743-15.624 46.326-25.729C472.954 199 472.954 199 476 199l-.14-1.703c-.932-21.694 7.419-45.348 21.577-61.672 9.339-9.843 19.763-15.625 33.5-16 14.203-.04 26.225 7.237 36.512 16.605 4.821 3.345 10.807 2.602 16.491 2.697 2.954.07 5.901.203 8.852.347 2.834.126 5.668.209 8.503.284q2.123.066 4.243.18c8.62.467 8.62.467 16.489-2.672 2.644-2.33 2.644-2.33 4.863-4.802 17.25-18.507 47.994-18.132 67.633-4.248" fill="#1b3d64"/>
  <path d="M678.672 140.633c19.895 11.683 26.843 34.042 33.52 54.865 1.24 3.844 2.525 7.672 3.808 11.502l2-15c24.37 9.748 40.96 35.155 51.875 57.75l1.408 2.903c2.492 5.287 4.477 10.475 6.043 16.104.686 2.461.686 2.461 2.15 5.524 13.683 30.603 14.263 69.982 17.688 102.857a975 975 0 0 0 2.936 24.79l.322 2.463.313 2.305a79 79 0 0 1 .401 4.856c.37 6.254 1.832 9.977 5.489 15.01a994 994 0 0 1 3.012 4.434l1.642 2.414c10.198 15.348 19.011 31.527 27.355 47.937a388 388 0 0 0 3.98 7.505C850.826 504.014 859.37 520.32 864 537l-1 2-.911-1.538c-6.334-10.596-12.805-20.307-21.616-28.997a130 130 0 0 1-3.057-3.15c-4.464-4.682-9.315-8.236-14.729-11.752l-2.455-1.64c-3.815-2.848-3.815-2.848-8.232-3.923l2.457 2.281C840.912 515.405 855.737 551.29 861 587l.529 3.346c1.686 11.738 1.828 23.373 1.784 35.217l-.007 3.085c-.097 28.364-1.147 57.145-22.056 78.602-27.323 26.834-68.574 29.247-104.7 29.042-7.894-.078-15.697-.439-23.55-1.292v-19l-2.812 5.125c-13.07 22.343-31.088 37.191-54.563 47.75l-2.055.941c-3.657 1.604-6.564 2.57-10.57 2.184.964-3.114 1.943-5.898 3.547-8.746 2.778-6.22 2.594-14.097.797-20.645-1.754-3.476-4.475-6.117-7.93-7.898-5.585-1.645-11.624-1.562-17.414-1.711.482-2.73 1.075-5.204 2.035-7.812 1.139-3.762 1.37-7.292 1.403-11.188.032-.686.065-1.372.1-2.078.04-3.85-.472-6.324-2.854-9.277-7.44-7.331-15.715-7.385-25.684-7.645l.875-1.547c3.257-6.377 4.34-12.335 3.125-19.453-2.527-3.51-5.056-5.361-9-7a88 88 0 0 0-6.25-.625l-3.266-.227L580 666v-2c17.637-16.22 41.784-25.775 65.61-25.34 16.536.745 32.518 5.241 47.39 12.34-5.578-6.747-11.29-12.029-18.398-17.09-2.102-1.543-3.802-3.051-5.602-4.91 7.445-3.28 14.882-5.365 22.813-7.125l3.29-.762c12.833-2.909 25.035-4.458 38.21-4.363l2.064.01c20.493.121 39.189 2.932 57.623 12.24l2.445 1.203c1.858.92 3.708 1.856 5.555 2.797-10.703-17.184-28.988-29.003-48.445-34.035-7.735-1.778-15.656-2.384-23.555-2.965-3.073-8.81-3.24-17.021-3.25-26.25l-.004-2.186c.004-10.81.564-21.045 3.254-31.564l.867-3.453c.668-2.532 1.37-5.043 2.133-7.547-19.556 21.023-23.612 46.53-25 74l-10 1c-1.562-4.233-2.299-8.015-2.687-12.5-2.303-21.008-8.205-42.032-16.313-61.5l-.94-2.272C667.432 500.907 652.856 481.015 635 464l1.145 1.738c4.097 6.324 7.982 12.762 11.793 19.262l1.505 2.536c.46.793.922 1.585 1.397 2.401l1.261 2.153C653 494 653 494 653 497c-26.751 13.376-80.992 5.93-109 0l-6.91-1.355c-13.797-2.807-26.956-6.583-40.09-11.645v-1l3.104-.044c39.38-.603 78.306-3.181 115.896-15.956l2.494-.845A827 827 0 0 0 644 457l-1.981.26q-4.571.593-9.144 1.178l-3.113.408c-14.705 1.872-29.214 2.34-44.02 2.34-3.104.001-6.208.02-9.312.039-14.4.041-28.353-.594-42.367-4.225l-4.243-1.047L526 455a894 894 0 0 0-9-2v-1l2.668-.136c22.273-.963 22.273-.963 44.251-4.409 2.35-.514 4.707-.96 7.07-1.408C596.745 440.94 622.701 430.49 644 415c-1.003.08-2.007.16-3.04.244-11.154.89-22.31 1.74-33.468 2.57q-3.322.249-6.645.508c-15.086 1.153-30.126 1.73-45.253 1.951l-2.096.031c-7.027.102-14.054.191-21.081.25-25.05.214-49.743 1.927-74.605 4.946l-5.439.645a2034 2034 0 0 0-28.068 3.493c-4.146.454-8.14.51-12.305.362 1.362-4.613 3.27-8.387 5.75-12.5 3.505-5.938 6.324-11.963 8.926-18.344L428 396l1.313-3.16c2.028-3.414 3.994-4.73 7.375-6.777 4.236-2.545 4.236-2.545 7.959-5.756 5.65-5.79 10.561-6.55 18.455-6.877l3.497-.174q3.652-.156 7.307-.255c3.698-.125 7.37-.389 11.059-.657 16.743-.774 16.743-.774 22.512 3.485 4.291 4.452 7.372 9.476 10.267 14.911 1.714 3.085 3.762 5.666 6.006 8.385l1.797 2.258c1.378 1.732 1.378 1.732 3.453 2.617l.766-2.535c1.359-3.815 3.115-7.322 4.984-10.902 3.449-6.7 6.269-13.468 8.828-20.551 1.86-3.94 3.692-5.26 7.606-6.961l2.254-.738c1.111-.378 1.111-.378 2.246-.762 2.668-.635 4.577-.865 7.316-.551 2.34 1.804 2.34 1.804 4.723 4.305l2.63 2.707 2.71 2.863q2.667 2.784 5.347 5.555l2.38 2.507c2.024 1.89 3.674 3.006 6.21 4.063l.55-1.663c1.294-3.896 2.6-7.785 3.95-11.661l1.5-4.363.825-2.356c1.634-4.817 2.498-9.255 3.05-14.332 1.43-7.45 5.86-10.348 11.799-14.432a527 527 0 0 1 4.323-2.854C628.31 321.105 639.739 307.07 650 292c4.024 1.417 7.134 3.348 10.563 5.875l2.816 2.055c2.396 1.892 4.517 3.862 6.621 6.07.442-7.995-.344-13.922-4.75-20.687-7.388-7.594-15.003-10.44-25.562-10.688C632.765 274.757 626.6 276 620 278a291 291 0 0 1-4 1v2l2.852.367 3.773.508 3.727.492c3.388.588 6.425 1.453 9.648 2.633-1.535 4.983-4.49 8.292-7.875 12.125l-1.767 2.007C608.353 319.3 585.65 333.321 561 344l-3.406 1.52c-18.982 7.82-41.54 12.68-61.996 12.578l-3.266-.005c-3.423-.005-6.846-.018-10.27-.03q-3.492-.009-6.986-.014-8.538-.017-17.076-.049l-.184-3.254-.253-4.308-.12-2.135c-.268-4.483-.75-8.866-1.443-13.303h-2l-.227 1.8c-2.199 13.864-10.645 24.544-21.296 33.266-5.51 3.79-11.482 6.341-17.664 8.809l-2.268.906c-8.175 3.09-16.144 3.418-24.795 3.469-1.297.03-1.297.03-2.621.063-7.095.041-13.318-1.447-20.129-3.313-4.326-1.053-8.663-2.056-13-3.062l-3.29-.776a279 279 0 0 0-29.835-5.224l-2.137-.259c-4.615-.527-9.198-.807-13.84-.968-10.852-.398-19.004-2.08-27.148-9.797-8.277-9.053-10.25-19.014-10.062-30.976l-.01-3.143c.041-5.962.684-11.07 2.322-16.795.25-3.637.286-6.238-.996-9.656-1.251-4.167-1.335-7.896-1.317-12.219l-.048-2.316c-.007-8.031 2.2-14.37 7.705-20.266 4.13-3.847 7.77-5.767 13.469-6.168 6.051.296 10.743 2.539 15.187 6.625 3.734 5.822 4.563 12.219 5 19l1.46-1.68c.633-.724 1.264-1.449 1.915-2.195l1.898-2.18c3.487-3.928 3.487-3.928 6.983-4.172q2.079.001 4.158.032l2.211.008c2.334.011 4.667.037 7 .062q2.37.016 4.742.027 5.816.035 11.633.098a47.3 47.3 0 0 1-2.562 7.75c-1.643 4.243-1.68 7.73-1.438 12.25l1.434-2.125C353.357 281.942 362.435 271.38 375 269c7.407-.712 13.696-.178 20 4 5.225 4.62 8.577 10.015 9.316 16.98.39 10.736-1.93 17.632-9.066 25.645A284 284 0 0 1 391 320c7.972-1.421 15.262-4.132 21-10l1.695-1.723c5.557-6.706 5.204-14.07 4.526-22.354-.76-6.614-3.296-11.644-7.221-16.923 4.938.553 8.889 2.169 13.25 4.438l1.89.947c2.63 1.34 4.76 2.515 6.86 4.615-3.502-8.146-11.482-12.694-19.336-15.969L411 262l-2.477-.969c-1.832-.7-3.676-1.369-5.523-2.031 4.951-5.411 11.33-7.98 18.598-8.39 18.912-.444 37.727 4.478 53.402 15.39l3 2c-6.22-10.817-17.134-18.082-28.998-21.59-3.965-1.006-7.963-1.766-12.002-2.41v-3a3847 3847 0 0 1 7.313-3.937l2.091-1.131 2.022-1.084 1.856-1c14.239-7.03 37.341-1.555 51.718 3.152 6.47 2.364 12.757 5.095 19 8-14.392-14.946-31.032-18.726-51-21 2.558-2.65 5.113-5.002 8.125-7.125l2.07-1.508c8.087-3.942 17.121-3.689 25.93-3.617l3.603.018c11.749.132 23.16.754 34.354 4.646 2.062.732 2.062.732 4.918.586-13.523-7.122-25.967-11.813-41.375-12.562l-2.52-.131q-3.053-.158-6.105-.307c3.452-3.807 7.41-6.416 11.688-9.187 4.373-2.64 4.373-2.64 8.312-5.813l-8 1 .184-2.324c.821-10.883 1.33-21.774 1.816-32.676h-2l-.68 2.012c-1.729 3.913-4.037 7.276-6.445 10.8l-1.418 2.1A1523 1523 0 0 1 499 175c-1.395-4.185.281-6.796 2-10.625l.975-2.181C506.314 152.809 512.12 145.515 521 140c6.98-2.317 13.418-1.63 20 1.5 7.559 4.11 14 9.364 20 15.5-3.75 3-3.75 3-6 3v2l3.363-1.482c4.986-1.86 9.553-1.902 14.824-1.811l2.858.013c2.986.017 5.97.054 8.955.093q3.053.022 6.105.04c4.966.033 9.93.085 14.895.147-1.07 2.705-2.168 5.372-3.367 8.023-3.83 8.512-6.47 16.893-8.633 25.977h2l.75-1.684c4.38-8.118 11.695-15.005 17.902-21.75a304 304 0 0 0 6.035-6.816c9.057-10.335 18.977-19.499 32.313-23.75 7.922-2.64 18.168-1.97 25.672 1.633" fill="#fbfcfc"/>
  <path d="M465 479c4.077.717 7.502 2.727 11.125 4.625C497.11 494.309 519.839 500.975 543 505l3.188.556c32.3 5.418 66.445 5.62 98.687-.658 4.472-.865 8.577-1.07 13.125-.898 6.196 11.104 11.485 22.024 15.383 34.134 1.191 3.601 2.587 7.13 3.953 10.667C678 551 678 551 678 555c-8.765 1.987-16.95 3.508-26 3v9l2.34-.459q5.235-1.023 10.472-2.041l3.682-.723 3.526-.683 3.253-.635C678 562 678 562 681 562c2.206 8.848 4.233 17.692 5.75 26.688l.386 2.245c.661 4.064.994 7.952.864 12.067l-1.702.424c-14.394 3.632-29.175 7.578-42.326 14.67-3.107 1.428-6.36 1.161-9.722 1.218-18.897.777-35.076 9.821-50.992 19.34C581 640 581 640 579 641c2.535-15.086 7.968-25.75 20-35a400 400 0 0 0 5.25-4.75 736 736 0 0 1 8.688-7.687l1.921-1.692a401 401 0 0 1 4.907-4.21c5.815-5.046 10.243-9.52 13.234-16.661l.957-2.21c2.957-7.696 3.248-15.35-.043-22.977-3.292-6.527-7.064-10.87-13.914-13.563-8.283-2.499-17.232-2.598-24.96 1.52L593 535l-1.977 1.074c-10.199 6.44-16.055 19.917-22.086 29.989l-1.545 2.57c-2.294 3.823-4.56 7.65-6.732 11.543-4.158 7.245-7.824 11.313-15.66 14.511-4.063 1.778-7.293 4.339-10.746 7.09C532 603 532 603 529.516 602.907c-2.925-1.054-4.88-2.428-7.328-4.345-18.153-13.62-38.372-24.085-59.625-31.937l-3.11-1.158c-9.771-3.621-19.6-7.077-29.453-10.467.52-6.059 2.444-10.829 5-16.312l1.117-2.456c1.26-2.762 2.525-5.516 3.883-8.232 4.018.637 7.018 2.79 10.375 4.938C481.335 552.009 518.145 561.885 554 566l.438-2.312C555 561 555 561 556 558l-2.945-.262C515.485 554.043 476.9 541.244 445 521c.547-4.952 2.183-8.844 4.492-13.191l1.05-2.024c1.104-2.12 2.218-4.234 3.333-6.348l2.223-4.271c5.788-11.098 5.788-11.098 8.902-16.166" fill="#fafafb"/>
  <path d="M754 812h1v48l11.75-.187c11.7-.058 22.8.81 34.25 3.187l2.424.488C828.079 868.633 852.91 883.718 867 905l-1 2-1.984-1.32c-28.92-18.872-65.638-27.906-99.943-21.13-13.978 3.032-27.253 7.09-40.073 13.45-.63.307-1.26.613-1.908.93-29.683 14.587-51.904 37.683-69.777 65.122L651 966l-1.072 2.224c-3.262 3.005-7.15 2.264-11.408 2.167l-2.813-.018c-2.965-.022-5.93-.072-8.894-.123q-3.015-.03-6.03-.055A1918 1918 0 0 1 606 970c.513-3.982 1.214-6.896 3.371-10.285l1.475-2.338 1.591-2.44 1.64-2.549A232 232 0 0 1 629 932l1.323-1.63c9.498-11.666 19.75-22.139 31.677-31.37l1.59-1.264c17.197-13.623 37.337-24.487 58.472-30.423l3.065-.893A194 194 0 0 1 744 862l.212-1.905c2.627-23.091 2.627-23.091 6.788-34.095h2z" fill="#1b3d64"/>
  <path d="m215.813 506.938 2.394.027L220 507c1.498 3.371 2 5.204 2 9a895 895 0 0 1-4.812 1.5l-2.708.844C212 519 212 519 209 519v2l2.781.55c17.708 3.628 32.364 10.787 43.535 25.5C260 554.195 260 554.195 260 558l-1.984-.656c-8.297-2.531-17.165-4.35-25.454-.844-4.269 2.567-6.93 5.787-8.562 10.5-.68 6.03-.317 12.073 1 18l-2.875-1c-6.82-1.933-14.647-1.933-21.125 1-4.553 4.142-7.774 7.812-8.114 14.106l.016 2.222.01 2.422.025 2.5.014 2.547q.02 3.101.049 6.203l-2.617-.48a73 73 0 0 0-9.508-.832l-3.07-.114c-3.53.536-4.61 1.676-6.805 4.426-3.546 7.446-2.171 16.095-1 24-9.13-8.3-14.188-18.867-19-30l-1.07-2.457c-6.245-15.368-4.101-35.448 1.867-50.562 9.625-22.751 27.035-39.962 49.766-49.418 4.741-1.833 9.162-2.701 14.25-2.625" fill="#fbfbfc"/>
  <path d="M511 709h2c1.11 1.414 1.11 1.414 2.32 3.41.45.734.898 1.468 1.36 2.225l1.445 2.428 1.496 2.504q1.503 2.533 2.992 5.075a435 435 0 0 0 3.574 5.944c12.122 20.968 17.97 45.4 18.813 69.414-8.046-.704-16.013-1.811-24-3l-3.715-.54-3.535-.523-3.203-.472C508 795 508 795 506 794a79 79 0 0 0-4.263-.449l-2.67-.223-2.895-.23-6.05-.51q-4.777-.396-9.553-.783c-3.07-.25-6.14-.51-9.21-.77l-2.87-.224c-4.781-.41-8.984-1.02-13.489-2.811.505-4.68 2.393-7.185 5.313-10.812a2332 2332 0 0 0 2.746-3.47l1.46-1.835c2.509-3.19 4.93-6.443 7.356-9.696l3.059-4.09 1.538-2.057q2.245-2.995 4.5-5.981a1238 1238 0 0 0 15.778-21.371l1.651-2.289c2.39-3.316 4.772-6.638 7.126-9.981l2.16-3.043 1.825-2.602z" fill="#f9fafb"/>
  <path d="M396 638c6.06.642 11.84 1.777 17.75 3.25l2.477.582c6.903 1.71 13.28 4.291 19.773 7.168l2.988 1.317c14.69 6.59 28.09 14.065 41.012 23.683-1.745 3.765-3.822 5.912-6.937 8.688l-1.48 1.322c-4.148 3.68-8.45 7.161-12.767 10.642-3.565 2.972-6.95 6.111-10.346 9.273a168 168 0 0 1-9.658 8.263c-8.548 6.87-16.939 14.446-24.378 22.51C413 736 413 736 410.437 736.313 408 736 408 736 406 734c-.455-2.967-.455-2.967-.746-6.79l-.168-2.08q-.18-2.217-.347-4.438c-.297-3.905-.628-7.808-.958-11.712l-.198-2.357c-1.09-12.8-2.852-25.51-4.661-38.225l-.557-3.944q-.538-3.788-1.095-7.574c-.91-6.37-1.47-12.446-1.27-18.88" fill="#fbfcfc"/>
  <path d="M242 714c3.915 1.305 4.498 2.92 6.688 6.375a295 295 0 0 0 9.988 14.453 902 902 0 0 1 5.367 7.406c5.046 7.031 10.1 14.044 15.394 20.891l2.391 3.098a327 327 0 0 0 4.156 5.21l1.704 2.13 1.449 1.753c.863 1.684.863 1.684.648 3.618-1.806 4.754-3.652 7.932-7.785 11.066-5.513 2.178-11.575 2.734-17.412 3.516-4.209.568-8.407 1.197-12.608 1.828-6.22.924-12.443 1.833-18.671 2.703l-2.056.293c-3.139.433-6.072.66-9.253.66-1.566-29.189 6.786-59.131 20-85" fill="#f9fafa"/>
  <path d="M679.5 161.188c3.04 2.216 5.364 4.697 7.5 7.812l-2.043-.496c-3.47-.592-6.75-.6-10.27-.566l-3.8.027L668 168l1.504.96c8.04 5.524 13.332 12.448 15.496 22.04.656 8.84.008 17.378-2 26l1.617.41c6.625 1.914 12.158 5.063 17.383 9.59v2l-2.64-.586c-3.783-.827-7.57-1.624-11.36-2.414l-2.969-.645C665.52 221.546 648.45 224.412 631 234q-1.994 1.011-4 2c.59-3.567 1.957-5.415 4.375-8.062l1.836-2.036L635 224l1.602-1.746C638 221 638 221 640 221l-.621-2.379C637.96 213.09 636.645 207.676 636 202l-1.504 2.195c-4.054 5.77-7.908 10.497-13.496 14.805 1.138-6.787 2.845-12.93 5.563-19.25l1.06-2.48c6.62-15.003 16.07-30.105 31.377-37.27 6.542-2.128 14.513-2.403 20.5 1.188" fill="#1c3b60"/>
  <path d="M354 637c-.437 7.743-1.26 15.386-2.305 23.066l-.376 2.767-.787 5.756c-1.747 12.765-3.487 25.509-4.454 38.36l-.193 2.553q-.437 5.923-.771 11.856l-.278 4.189-.202 3.651C344 732 344 732 342.098 733.408c-2.863.808-4.286.605-7.098-.408a72 72 0 0 1-5.625-5 968 968 0 0 0-3.2-3.035l-1.614-1.528c-2.247-2.068-4.612-3.97-6.998-5.875-4.185-3.365-8.146-6.894-12.063-10.562-4.8-4.494-9.739-8.72-14.867-12.84-3.573-2.931-6.979-6.03-10.395-9.14-2.684-2.423-5.437-4.735-8.238-7.02 1.547-3.81 3.904-6.024 6.938-8.75l2.652-2.422C284 665 284 665 287 665a127 127 0 0 1 5 5c7.317 6.727 14.988 13.108 22.75 19.313l1.77 1.436c3.322 2.694 3.322 2.694 7.48 3.251 9.33-11.672 12.253-27.707 15-42l-5.25-.437-10.219-.852-3.281-.274L315 650v-2q7.32-2.607 14.652-5.174 3.289-1.16 6.57-2.338 1.952-.683 3.903-1.363l3.508-1.242c3.588-.94 6.674-1.043 10.367-.883" fill="#f6f7f8"/>
  <path d="M543 844c.285 5.324-.159 8.735-2.15 13.778-.867 2.265-1.606 4.542-2.323 6.859-5.5 17.595-12.323 36.187-24.527 50.363h-2a114 114 0 0 1-4.75-5.875l-1.453-1.883a1505 1505 0 0 1-3.135-4.077c-2.868-3.736-5.768-7.449-8.662-11.165l-3.578-4.605a2438 2438 0 0 0-9.172-11.707l-3.922-4.997q-1.383-1.761-2.769-3.519-2.129-2.706-4.247-5.422l-1.317-1.665C466 856.228 466 856.228 466 854l2.145-.228c20.534-2.194 40.91-4.736 61.22-8.502 4.608-.836 8.927-1.498 13.635-1.27" fill="#fafbfb"/>
  <path d="M744 252h2c16.06 16.894 24.702 38.026 24.47 61.232-.884 28.802-13.409 51.718-34.122 71.272-12.058 10.425-26.166 17-41.348 21.496l-2.137.637c-3.701 1.026-6.201 1.5-9.863.363l1.984-1.215C696.167 398.82 706.418 391.043 716 382l2.234-2.04c9.568-9.058 17.522-20.38 23.766-31.96l.938-1.716c2.746-5.22 4.55-10.504 6.187-16.159l.762-2.527c6.404-21.696 8.01-48.062-2.983-68.65Q745.457 256.47 744 254z" fill="#1c3d61"/>
  <path d="M365 813c6.049 5.798 9.072 13.017 9.438 21.313-.298 8.955-3.319 16.53-9.5 23.03-6.47 5.531-13.538 7.037-21.868 6.927-6.426-.565-10.426-3.306-14.82-7.895-6.377-7.954-8.014-15.615-7.687-25.754 1.072-8.88 5.432-14.509 12.257-20.058 10.024-7.186 22.695-4.167 32.18 2.437" fill="#f9fafb"/>
  <path d="M323.306 387.983c9.849.657 19.169 2.704 28.757 4.954q4.671 1.083 9.347 2.153l2.254.524a143 143 0 0 0 16 2.7c4.993 1.466 6.885 6.45 9.336 10.686a391 391 0 0 0 3.055 4.523l1.654 2.418 1.666 2.434a606 606 0 0 1 3.148 4.648l1.373 2.03c1.125 1.984 1.665 3.718 2.104 5.947q-7.463.149-14.93.22-2.528.03-5.055.082c-23.864.484-43.947-5.775-61.824-22.091-2.298-2.319-4.376-4.491-6.191-7.211.152-3.267 1.902-5.878 3.5-8.688l1.344-2.386c1.755-2.923 1.755-2.923 4.462-2.943" fill="#f9f9fa"/>
  <path d="m429 500-1.215 1.625c-7.848 10.82-14.024 22.527-19.785 34.563l-1.17 2.429-1.08 2.301-.953 2.024c-1.032 2.49-1.032 2.49-1.797 7.058l-45-1c-4-8-4-8-5-11 12.37-8.255 24.838-16.069 38-23l2.029-1.073c7.944-4.169 16.046-7.937 24.284-11.49l2.482-1.088 2.318-.978 2.056-.877C426 499 426 499 429 500" fill="#f7f8fa"/>
  <path d="M461 809c15.018-.226 29.42.498 44.313 2.313q2.954.346 5.908.688c4.745.553 9.487 1.12 14.23 1.692q5.508.661 11.018 1.307 8.268.978 16.531 2v7c-5.397 1.734-10.488 2.473-16.125 2.938-7.778.71-15.48 1.663-23.205 2.811a870 870 0 0 1-16.748 2.298l-2.12.27q-5.247.668-10.495 1.325l-3.873.49-3.467.435c-3.162.411-3.162.411-6.967 1.433h-9z" fill="#f6f7f9"/>
  <path d="M495.098 687.258c2.343.914 3.482 1.65 4.902 3.742-.4 3.8-1.47 6.051-3.844 9.004l-1.764 2.225-1.892 2.333q-1.935 2.435-3.867 4.872l-1.902 2.382c-3.684 4.647-7.192 9.426-10.731 14.184a6307 6307 0 0 1-5.937 7.938l-1.543 2.06a1220 1220 0 0 1-12.196 15.94c-3 3.953-5.833 8.015-8.633 12.113L446 766h-3c-1.29-1.434-1.29-1.434-2.625-3.437-3.091-4.406-6.732-7.884-10.715-11.485C428 749 428 749 427.898 747.098c1.663-3.166 4.113-5.461 6.664-7.91l1.657-1.621a220 220 0 0 1 10.734-9.801c2.504-2.16 4.927-4.4 7.36-6.641a223 223 0 0 1 11-9.437c4.465-3.602 8.688-7.396 12.875-11.313l1.809-1.687a804 804 0 0 0 7.53-7.11l2.098-1.953 1.727-1.648c1.648-.977 1.648-.977 3.746-.72" fill="#f7f8f9"/>
  <path d="M371 627h7l.212 2.366q.514 5.693 1.038 11.384l.197 2.14c1.004 10.866 2.164 21.707 3.412 32.547C384.876 692.982 386.21 710.33 386 728h-24c0-7.947.173-15.487.988-23.336l.315-3.153q.33-3.285.668-6.57c.337-3.273.663-6.546.988-9.82 1.135-11.278 2.41-22.518 4.05-33.735 1.168-8.105 1.676-16.207 1.991-24.386" fill="#f2f4f6"/>
  <path d="M251 684c4.09.192 6.058 2.788 8.75 5.625 3.543 3.65 7.127 7.093 10.988 10.398 2.976 2.6 5.866 5.288 8.762 7.977 3.42 3.172 6.838 6.333 10.375 9.375 4.661 4.027 9.121 8.27 13.608 12.49 3.935 3.691 7.918 7.29 12.099 10.705 1.642 1.656 2.42 3.337 3.418 5.43l-1.27 1.253a3797 3797 0 0 0-5.668 5.622l-1.998 1.973-1.904 1.894-1.761 1.746C304.9 759.967 304.9 759.967 304 762c-4.717-.846-6.585-3.727-9.375-7.375l-1.56-1.995c-8.32-10.721-16.379-21.668-24.088-32.837-3.562-5.033-7.248-9.976-10.916-14.932a1913 1913 0 0 1-3.448-4.674 423 423 0 0 0-3.157-4.227c-3.463-4.65-3.463-4.65-3.393-7.773C249 686 249 686 251 684" fill="#f7f8f9"/>
  <path d="M617 547c-.734 9.536-6.896 16.504-13.312 23.063l-2.02 2.109a593 593 0 0 1-11.992 12.121c-1.746 1.778-3.368 3.626-4.989 5.52-4.594 5.353-9.662 10.243-14.687 15.187-1.937-.687-1.937-.687-4-2-.969-2.262-.969-2.262-1-5 1.344-2.707 1.344-2.707 3.5-5.812q1.25-1.845 2.492-3.692l1.429-2.11c3.839-5.8 7.43-11.764 11.085-17.682 12.662-20.371 12.662-20.371 20.369-23.454C612.8 544.2 612.8 544.2 617 547" fill="#f5f6f8"/>
  <path d="M713.617 810.574c2.877 2.966 4.293 5.079 4.57 9.239L718 822c-4.98 2.148-4.98 2.148-7 3l-2.32 1.082c-9.523 3.262-21.04.544-30.672-1.215-5.851-1.053-11.737-1.803-17.633-2.554l-3.111-.398q-3.631-.462-7.264-.915v-7a1966 1966 0 0 1 21-4l2.585-.484c31.43-5.788 31.43-5.788 40.032 1.058" fill="#f4f5f7"/>
  <path d="M192 834c7.625 1.75 7.625 1.75 11 4 .693 2.685 1.221 5.274 1.688 8 1.594 8.348 3.765 16.437 6.25 24.563l.98 3.275c2.105 6.773 4.762 12.906 8.082 19.162a450 450 0 0 1 1.887 3.879 280 280 0 0 0 12.875 23.537l1.234 2.037 1.1 1.786c.974 1.897 1.466 3.68 1.904 5.761l-4 2c-2.71-3.3-5.362-6.643-8-10l-1.265-1.591C212.546 903.695 203.198 885.332 197 865l-.805-2.526c-1.593-5.087-2.73-9.934-3.382-15.224-.16-1.232-.318-2.465-.481-3.734A83 83 0 0 1 192 834" fill="#eef1f4"/>
  <path d="m599 706.813 2.156-.038c3.747-.01 6.73.006 9.844 2.225 2.359 4.717 1.608 10.148.012 15.012-3.407 7.493-7.959 13.581-15.012 17.988-4.655.466-6.304-.55-10.187-3.062-3.353-3.094-5.096-6.77-6.813-10.938l-1.25-3c-1.938-7.752-1.938-7.752-.75-11 6.76-5.839 13.338-7.18 22-7.187" fill="#f8f9fa"/>
  <path d="m101.063 808.875 3.103.527A323 323 0 0 1 122 813v11l-3.953.586-2.548.38q-2.768.412-5.537.82c-4.76.709-9.486 1.49-14.212 2.402-4.711.785-9.357 1.086-14.125 1.187l-3.96.086c-4.276-.538-6.413-1.668-9.665-4.461-.753-3.476-.992-4.75 0-8 8.425-13.014 19.41-10.557 33.063-8.125" fill="#f4f5f7"/>
  <path d="M241.563 445.938 245 446v2l2.25.625c3.682 1.84 4.78 3.778 6.75 7.375.381 2.693.522 4.885.438 7.563l-.034 2.264c-.384 13.933-1.48 28.532-4.404 42.173h-2c-5.669-10.773-10.094-21.567-13.562-33.25l-1.05-3.495c-3.864-13.484-3.864-13.484-1.11-18.653l1.66-1.977 1.652-2.023c2.289-2.6 2.289-2.6 5.972-2.664" fill="#f8f9fa"/>
  <path d="m273 810-.84 3.29-1.098 4.335-.552 2.16c-1.023 4.055-1.89 8.074-2.51 12.215-8.639-.436-16.964-1.606-25.45-3.172-11.11-2.048-22.285-3.905-33.55-4.828v-7q11.409-1.375 22.819-2.738 5.298-.633 10.596-1.271 6.095-.734 12.19-1.46l3.833-.464 3.578-.424c1.037-.125 2.074-.25 3.143-.377 2.635-.247 5.197-.316 7.841-.266" fill="#f3f5f6"/>
  <path d="M219 595c8.179 3.158 15.397 7.07 21 14-4.077 8.728-10.032 16.963-19 21a90 90 0 0 1-6 1 612 612 0 0 1-7-12l-1.133-1.934c-2.718-5.29-2.708-11.303-1.867-17.066 3.414-5.727 7.859-6.38 14-5" fill="#f9fafa"/>
  <path d="M631 745c4.66 2.32 4.66 2.32 6 5 1.116 8.609-2.915 15.244-7.508 22.324C628 774 628 774 624.938 774.563c-7.1-1.015-12.96-3.844-17.563-9.438-1.784-2.728-2.467-4.505-3.25-7.75 1.32-5.09 4.525-6.746 8.875-9.375l2.75-1.875c4.98-1.724 10.039-1.84 15.25-1.125" fill="#f5f6f8"/>
  <path d="M385 285c2.382 1.627 2.913 2.584 3.504 5.418.132 6.252-.565 10.218-4.738 14.996-3.9 3.503-8.2 4.496-13.204 5.399-5.18 1.023-8.634 3.783-12.562 7.187-2.005-6.015-1.323-11.83.828-17.695C363.985 290.163 373.254 282.72 385 285" fill="#204062"/>
  <path d="M264 510c7.931.793 12.653 3.09 18 9l2.188 2.375c3.646 5.28 4.617 11.337 3.812 17.625-1.539 4.616-3.182 7.92-7 11h-2l-1.066-2.09c-3.607-6.865-7.517-14.299-13.625-19.293-1.967-2.43-1.636-4.42-1.559-7.492.015-1.029.03-2.057.047-3.117.186-2.759.587-5.317 1.203-8.008" fill="#f2f4f6"/>
  <path d="M250 567c5.84 1.88 11.206 4.126 16 8-1.615 8.077-6.962 14.486-12.973 19.82-2.626 1.528-4.038 1.74-7.027 1.18-5.42-5.498-9.978-13.389-10.437-21.187C236 571 236 571 237.375 568.5c4.204-2.402 7.906-2.259 12.625-1.5" fill="#f6f7f8"/>
  <path d="M307 532c10.21 2.295 20.215 6.292 29.438 11.188l1.915 1.008c3.095 1.702 4.649 2.807 6.647 5.804l-2.073.304c-17.433 2.53-17.433 2.53-34.45 6.962C306 558 306 558 303 558l.621-2.133c2.172-7.96 3.026-15.635 3.379-23.867" fill="#f2f4f6"/>
  <path d="M587.438 676.5 590 678c.735 4.935.093 7.448-2.875 11.5-3.986 4.743-8.677 8.538-14.125 11.5h-3c-2.017-6.683-3.671-14.458-1.184-21.219 4.004-6.025 12.741-5.847 18.621-3.281" fill="#f1f3f4"/>
  <path d="M280 273c3.483.193 4.954.962 7.688 3.188 4.737 5.76 4.838 11.644 4.312 18.812-.835 6.264-.835 6.264-2 9l-3 1-1.277-1.32c-1.687-1.645-3.447-3.086-5.286-4.555-3.717-3.216-5.149-5.446-5.683-10.414-.307-6.16.71-9.676 4.246-14.711z" fill="#234265"/>
  <path d="M185 626.625c8.44.155 15.213 6.903 21 12.375-.145 1.8-.145 1.8-1 4-2.512 1.668-2.512 1.668-5.687 3.188l-3.137 1.542c-3.099 1.239-5.875 1.86-9.176 2.27-4.756-7.318-7.286-13.179-6-22 1-1 1-1 4-1.375" fill="#f5f7f8"/>
  <path d="M456 873c4.026 1.342 5.604 4.041 8.063 7.313q1.485 1.938 2.976 3.875l1.509 1.96c2.055 2.62 4.221 5.138 6.39 7.664 4.146 4.935 7.955 10.058 11.687 15.313l1.617 2.265 1.485 2.118 1.33 1.895C492 917 492 917 492 919c-8.865-1.59-16.68-11.061-23-17l-1.499-1.235c-4.949-4.349-6.512-9.321-8.376-15.515l-.93-2.902C456 875.399 456 875.399 456 873" fill="#edeff1"/>
  <path d="m376 949 2 1c.594 2.924.594 2.924 1.07 6.816.13 1.035.13 1.035.26 2.091q.272 2.2.53 4.4c.261 2.223.537 4.443.816 6.664.819 6.718 1.42 13.26 1.324 20.029h-13c-.142-5.029.341-9.518 1.375-14.437l.414-1.997a193 193 0 0 1 2.336-9.941c.87-3.604 1.314-7.057 1.629-10.742C375 951 375 951 376 949" fill="#224266"/>
  <path d="M417 395c1.225 3.675.688 4.265-.984 7.633l-1.336 2.691-1.43 2.801-1.383 2.824-1.351 2.684-1.242 2.465C408 418 408 418 405 419l-1.863-2.922-2.45-3.828-1.224-1.922c-1.682-2.626-3.352-5.184-5.256-7.656C393 401 393 401 393 399l3.219-.367c7.054-.829 13.942-1.638 20.781-3.633" fill="#f4f6f7"/>
  <path d="m624 806 11 2v23c-7 3-7 3-11 3z" fill="#f9fafb"/>
  <path d="M551.009 610.235c3.414 1.311 5.758 3.978 8.304 6.515l1.705 1.594c1.595 1.578 1.595 1.578 3.982 4.656-.073 4.152-2.06 7.372-4 11-2.913-1.313-4.945-2.712-7.164-5.004l-1.711-1.744-1.75-1.814q-1.735-1.787-3.477-3.567l-1.541-1.596c-1.351-1.391-1.351-1.391-3.357-2.275.125-1.75.125-1.75 1-4 5.006-4.116 5.006-4.116 8.009-3.765" fill="#f6f7f8"/>
  <path d="M536 368c-1.443 4.738-3.372 8.989-5.625 13.375l-.984 1.941A1362 1362 0 0 1 527 388c-3.87-1.29-4.765-3.025-7.125-6.312l-2.133-2.926c-1.508-2.39-2.31-4.01-2.742-6.762l3.176-.621 4.136-.817 2.092-.408C535.281 368 535.281 368 536 368" fill="#eff1f5"/>
  <path d="M290 385a879 879 0 0 1 7.75-.125l2.21-.05c3.844-.036 6.786 0 10.04 2.175q-1.904 2.876-3.812 5.75l-2.145 3.234c-3.594 5.305-3.594 5.305-5.043 7.016h-2a2764 2764 0 0 1-3.5-7.875l-1.012-2.262-.957-2.168-.888-2C290 387 290 387 290 385" fill="#f0f2f5"/>
  <path d="m144 808 2 25-9-2c-1.022-4.088-1.292-7.881-1.375-12.062l-.113-2.182c-.035-2.104-.035-2.104.488-5.756 2.851-2.436 4.25-3 8-3" fill="#fafbfb"/>
  <path d="M588 349c-.62 6.575-2.149 12.667-4 19-3.452-1.477-5.65-3.438-8.25-6.125l-2.14-2.195L572 358c1-3 1-3 3.871-4.605l3.567-1.582 3.558-1.606C586 349 586 349 588 349" fill="#ebeef2"/>
  <path d="M672 180c2.375 1.625 2.375 1.625 4 4 .612 3.672.487 5.288-1.625 8.375-3.053 2.089-4.745 2.166-8.375 1.625-1.875-1-1.875-1-3-3-.54-3.598-.685-6.782 1.125-10 2.82-1.504 4.731-1.45 7.875-1" fill="#eef1f4"/>
  <path d="M527 208c5.824.116 10.264 1.843 15.438 4.438l1.9.947c4.527 2.345 4.527 2.345 5.662 4.615-5.014-.519-9.21-1.404-14-3-2.664-.436-5.312-.722-8-1z" fill="#213d56"/>
  <path d="M191 768h1v37l7-1v-13h1v14c-6 2-6 2-10 2q-.037-6.403-.055-12.805a1695 1695 0 0 0-.02-4.347c-.087-14.82-.087-14.82 1.075-21.848" fill="#b3c0cc"/>
  <path d="m624 806 11 2v15h-1v-14l-8-1v24l3 1-5 1z" fill="#bec9d4"/>
  <path d="M811 486c6.525 3.02 12.196 6.766 18 11l-1 7c-3.343-1.114-4.06-1.975-6.25-4.625-2.977-3.529-6.111-6.76-9.465-9.93C811 488 811 488 811 486" fill="#304c65"/>
  <path d="M506 155h5c-1.621 4.798-4.293 8.667-7.125 12.813l-1.418 2.1A1523 1523 0 0 1 499 175c-1.12-3.362-.976-3.708.398-6.758l.954-2.144 1.023-2.223 1-2.246c2.455-5.459 2.455-5.459 3.625-6.629" fill="#e1e5eb"/>
  <path d="M396 638c4.38.52 8.688 1.057 13 2v1l-11-1q.465 5.344.938 10.688l.263 3.052.264 2.96.238 2.713c.295 2.57.781 5.053 1.297 7.587q.097 2.405.063 4.813l-.028 2.394L401 676h-1q-.866-5.947-1.709-11.896-.288-2.018-.582-4.035c-1.08-7.415-1.972-14.572-1.709-22.069" fill="#bdc8d4"/>
  <path d="m961 833 2 1v2c-1.405 1.097-1.405 1.097-3.36 2.277l-2.132 1.307-2.258 1.354a2249 2249 0 0 0-4.36 2.652l-2.068 1.257c-1.959 1.203-1.959 1.203-4.213 2.97C943 849 943 849 941 849c1.469-3.689 3.357-5.247 6.625-7.437l2.695-1.81L953 838l2.367-1.598c4.021-2.643 4.021-2.643 5.633-3.402" fill="#234261"/>
  <path d="m637 147 2 1-23 23-2-1c7.304-8.133 14.757-15.811 23-23" fill="#dae0e4"/>
  <path d="M689 920c0 3 0 3-1.744 5.085l-2.412 2.364-2.598 2.569-2.746 2.67-2.746 2.705Q673.387 938.706 670 942l-2-1c15.03-17.02 15.03-17.02 21-21" fill="#dde3e8"/>
  <path d="m698 397 2 1-3 6 2 1a560 560 0 0 1-5.75 1.563l-3.234.878c-2.86.53-4.332.543-7.016-.441l2.266-1.426 2.984-1.887 2.953-1.863A103 103 0 0 0 698 397" fill="#324c63"/>
  <path d="m569.465 156.926 2.055.08c2.14.087 4.278.196 6.418.306q2.192.096 4.384.186 5.34.227 10.678.502v1l-2.627.06q-4.875.119-9.75.257-2.102.057-4.202.105c-7.353.168-14.358.339-21.421 2.578v-2c5.135-2.531 8.633-3.34 14.465-3.074" fill="#334b63"/>
  <path d="M848 759h2c-3.337 7.786-11.1 13.45-18 18 .77-3.78 2.03-5.48 5-8h2v-2c1.715-1.691 1.715-1.691 3.938-3.562l2.214-1.88c.915-.77.915-.77 1.848-1.558z" fill="#2b4666"/>
  <path d="M333 589v2a101 101 0 0 1-6 3.625l-3.375 1.914L321 598v-4l-4-2a659 659 0 0 1 5.188-1.5l2.917-.844c2.748-.623 5.091-.779 7.895-.656" fill="#27425d"/>
  <path d="m275 600 1 2a2696 2696 0 0 1-3.312 3.813l-1.864 2.144A101 101 0 0 1 266 613l1 2-8 5c1.28-5.415 3.867-8.203 8-11.687 4.393-3.783 4.393-3.783 8-8.313" fill="#ced8e0"/>
  <path d="M604 810h1l1 35h-3z" fill="#556d89"/>
  <path d="m166 505 2 1-18 18-2-1c11.337-12.67 11.337-12.67 18-18" fill="#395473"/>
  <path d="m626 579 1 3-14 13-2-2c4.812-4.924 9.71-9.592 15-14" fill="#234162"/>
  <path d="m144 808 2 25-7-1v-1h5l-.5-3.75c-.651-5.75-.588-11.471-.5-17.25l-4-1c2-1 2-1 5-1" fill="#b6c0cd"/>
  <path d="M543 844c.25 7.625.25 7.625-2 11v-9l-17 1v-1q3.061-.508 6.125-1l3.445-.562c3.191-.408 6.218-.516 9.43-.438" fill="#9eadbc"/>
  <path d="m944 746 3 2q-2.654 2.19-5.312 4.375l-2.989 2.46C936 757 936 757 933 759c.285-3.466.758-4.763 3.285-7.238.917-.685 1.833-1.37 2.778-2.074l2.785-2.114z" fill="#264262"/>
  <path d="M241.563 445.938 245 446v2l-3.25.75c-3.9 1.3-5.4 1.943-7.75 5.25-.892 2.662-1.447 5.235-2 8h-1c-.623-4.986-.128-7.321 2.938-11.375 3.772-4.62 3.772-4.62 7.625-4.687" fill="#c7cfd8"/>
  <path d="m713 900 3 2-14 9-1-3q2.437-1.72 4.875-3.437l2.742-1.934C711 901 711 901 713 900" fill="#294666"/>
  <path d="M810 727c-13.873 6.794-13.873 6.794-20 7-2.254-.965-2.254-.965-4-2l3.29-.805 4.335-1.07 2.16-.527c3.276-.812 6.425-1.672 9.613-2.793C808 726 808 726 810 727" fill="#405875"/>
  <path d="M857 521c2.082 3.122 3.326 6.07 4.688 9.563l1.386 3.503C864 537 864 537 863 539c-6.833-9.423-6.833-9.423-7.242-13.29.304-1.898.304-1.898 1.242-4.71" fill="#bbc8d6"/>
  <path d="M323 944h1q.331 4.342.625 8.688l.195 2.474c.29 4.47.354 7.764-1.82 11.838h-1c-.11-7.741.028-15.314 1-23" fill="#617889"/>
  <path d="M443 733c-1.587 3.903-4.134 6.335-7.125 9.25l-2.758 2.703L431 747l-1-3a1250 1250 0 0 1 5.375-5.5l1.54-1.59C440.772 733 440.772 733 443 733" fill="#e1e6eb"/>
  <path d="M198 698h1c.09 5.152-.153 9.92-1 15l-2-4-1 2h-2a932 932 0 0 1 1.375-4.25l.773-2.39c.804-2.226 1.75-4.27 2.852-6.36" fill="#526981"/>
  <path d="M313 595c-1.313 2.626-2.324 2.695-5.062 3.625-4.489 1.431-8.254 1.63-12.938 1.375 5.79-3.86 11.067-5.433 18-5" fill="#304c6a"/>
  <path d="m182 520 2 1-15 15-2-1a113.7 113.7 0 0 1 15-15" fill="#cdd6dd"/>
  <path d="m503 200 2 1c2.036.386 4.079.736 6.125 1.063l3.32.535L517 203v1h-18z" fill="#c4ced7"/>
  <path d="m365.75 783.938 3.547.027L372 784v1l-9 1 2 3-10-2v-2c3.61-1.135 6.984-1.1 10.75-1.062" fill="#d4dde7"/>
  <path d="m284 665 3 1c-4.615 4.065-9.256 8.086-14 12 0-3 0-3 2.406-5.48q1.536-1.366 3.094-2.707l1.59-1.405A552 552 0 0 1 284 665" fill="#d2dae0"/>
  <path d="M754 310c2.8 4.201 1.891 7.194 1 12-.603 2.02-1.243 4.032-2 6h-2c.676-6.082 1.736-12.013 3-18" fill="#304b6b"/>
  <path d="m362 275 2 1-12 12-2-1c3.723-4.42 7.295-8.578 12-12" fill="#d3dae1"/>
  <path d="M426 270q1.731 1.36 3.438 2.75l1.933 1.547C433 276 433 276 434 280l-10-6z" fill="#53697d"/>
  <path d="M892 923h1c.426 5.537-1.095 9.897-3 15h-1c-.35-5.842-.167-9.853 3-15" fill="#274365"/>
  <path d="M223 579c2 2 2 2 2 6l-2.625-1c-5.938-1.746-12.253-1.153-18.375-1 3.467-2.311 4.857-2.243 8.938-2.187l3.152.019c2.47.143 4.552.458 6.91 1.168z" fill="#9dabbc"/>
  <path d="m550 967 2 1c1.739.153 3.482.25 5.227.316l3.125.127 3.273.12 3.297.13q4.038.16 8.078.307v1h-27v-2z" fill="#0d2e54"/>
  <path d="M420 957h1c2.74 7.635 3.633 14.917 4 23-2.351-3.526-2.382-5.73-2.656-9.844-.237-2.447-.237-2.447-2.344-5.156-.258-2.695-.089-5.285 0-8" fill="#a2b1c1"/>
  <path d="m336 775 2 1a1250 1250 0 0 1-5.375 5.5l-1.54 1.59c-1.323 1.342-2.701 2.63-4.085 3.91h-2c1.503-3.668 3.637-5.69 6.625-8.25l2.477-2.14z" fill="#3b5676"/>
  <path d="m652 164 2 1-11 11-2-1a717 717 0 0 1 3.25-3.812l1.828-2.145c1.846-1.962 3.721-3.5 5.922-5.043" fill="#405977"/>
  <path d="M645 457c-8.035 4.079-8.035 4.079-12.062 3.75L631 460c4.337-3.837 8.504-4.564 14-3" fill="#495e6e"/>
  <path d="m701 875 2 1v2a205 205 0 0 1-3.75 2.063l-2.11 1.16c-2.501.908-3.673.66-6.14-.223 3.125-2.524 6.313-4.397 10-6" fill="#314d6d"/>
  <path d="M226 844c6.029.512 12.02 1.07 18 2v1l-3.21-.105q-2.083-.043-4.165-.082l-2.117-.077c-2.275-.066-2.275-.066-5.508.264l-2 3z" fill="#a5b3c4"/>
  <path d="M479 484c1.532.252 3.053.576 4.563.938l2.503.59L488 486l1 4q-2.19-.676-4.375-1.375l-2.46-.773C480 487 480 487 478 485z" fill="#304c6a"/>
  <path d="m510 187 1 3 2.25-1.062c2.882-.983 3.962-.97 6.75.062-5.75 5-5.75 5-8 5v-3h-2z" fill="#344e65"/>
  <path d="M428 820c3.869 3.35 4.295 7.1 5 12 .134 2.366.1 4.628 0 7h-1c-1.647-6.308-3.263-12.515-4-19" fill="#c8d2dc"/>
  <path d="m231 432 2 1-11 10-1-3a1325 1325 0 0 1 3.313-2.875l1.863-1.617C228 434 228 434 231 432" fill="#3f5a77"/>
  <path d="m493 731 1 3c-1.434 2.262-1.434 2.262-3.437 4.688l-1.997 2.449L487 743l-2-2z" fill="#264364"/>
  <path d="M341 445q3.91.384 7.813.813l2.236.212c5.5.623 5.5.623 7.963 2.55L360 450c-6.575-.62-12.667-2.149-19-4z" fill="#4a617a"/>
  <path d="M634 129v2c-3.19 2.32-6.417 4.346-10 6 .125-1.75.125-1.75 1-4 5.111-4 5.111-4 9-4" fill="#254060"/>
  <path d="m833 713 2 1c-4.09 3.74-7.868 6.747-13 9l-2-2 2.336-1.242 3.039-1.633 3.023-1.617c2.655-1.39 2.655-1.39 4.602-3.508" fill="#3a5472"/>
  <path d="m221 655 2 1-6 8-1-2-4-1z" fill="#c1cdd9"/>
  <path d="M540 213c4.752.432 6.92 1.328 10 5l-8-1v-2h-2z" fill="#2f495c"/>
  <path d="M501 164h3c-.531 4.515-2.366 7.347-5 11-1.136-3.41-.867-4.003.438-7.187l.87-2.168z" fill="#c9d2dd"/>
  <path d="M536 122c5.99-.315 9.636.318 15 3v2a1004 1004 0 0 1-5.25-1.375l-2.953-.773A34.6 34.6 0 0 1 536 122" fill="#193659"/>
  <path d="m629 637 19 1v1l-19 1z" fill="#324c6a"/>
  <path d="m600 547 2 1-12 12c1.954-5.698 5.02-9.62 10-13" fill="#d3dae0"/>
  <path d="M286 976h2l-3 15c-2-3-2-3-1.793-5.41l.606-2.653.582-2.66C285 978 285 978 286 976" fill="#2f4b6e"/>
  <path d="m158 706 2 3c-.61 2.05-.61 2.05-1.75 4.313-1.698 3.51-3.1 6.951-4.25 10.687-1.723-4.085-.073-7.37 1.438-11.25l.736-1.969A511 511 0 0 1 158 706" fill="#5a728c"/>
  <path d="M191 599h1l1 16-6-1 4-1z" fill="#cbd2db"/>
  <path d="m336 587-1 3-3-.062c-4.066-.009-7.977.497-12 1.062l1-2c2.871-.633 2.871-.633 6.438-1.125l3.558-.508C334 587 334 587 336 587" fill="#c2c9d2"/>
  <path d="m515 144 2 1a159 159 0 0 1-5 6h-2l-2 4c0-3.78.997-4.461 3.5-7.187l1.969-2.168z" fill="#c3ccd5"/>
  <path d="M325 949h3a295 295 0 0 1-.875 3.938l-.492 2.214C326 957 326 957 324 958c-.098-6.152-.098-6.152 0-8z" fill="#345068"/>
  <path d="M456 873c3.736 1.245 4.188 2.634 6 6h-2v5c-1.963-3.505-2.959-7.134-4-11" fill="#b8c5ce"/>
  <path d="M826 780v2c-1.68 1.29-1.68 1.29-3.875 2.625l-2.18 1.352C818 787 818 787 816 787c1.544-4.633 5.122-7 10-7" fill="#264361"/>
  <path d="M319 771c-1.583 4.274-4.506 6.265-8 9 0-3 0-3 1.242-4.605l1.633-1.582 1.617-1.606C317 771 317 771 319 771" fill="#254262"/>
  <path d="M732 524c1.208 3.623.543 4.641-1 8-3 0-3 0-5-1z" fill="#38576e"/>
  <path d="M221 517c-2.906 1.257-4.796 2-8 2v2l2 1-6-1v-2a211 211 0 0 1 3.75-1.562l2.11-.88c2.44-.636 3.78-.36 6.14.442" fill="#4d657c"/>
  <path d="M672 180v1h-5c-2.326 3.634-2.163 6.77-2 11l-2-1c-.362-7.357-.362-7.357 1.125-10 2.664-1.421 4.91-1.198 7.875-1" fill="#d9e1e9"/>
  <path d="M490 919c3.875.55 5.596 2.276 8.25 5.063l2.14 2.222L502 928c-3.944 0-4.824-1.314-7.687-3.937l-2.45-2.215L490 920z" fill="#7a92aa"/>
  <path d="m727 836 3 1c-2.39 3.243-4.205 5.509-8 7 0-3 0-3 2.5-5.687z" fill="#274669"/>
  <path d="M210 596c-1.875 3.875-1.875 3.875-3 5a123 123 0 0 0-.562 5.563l-.254 3.066L206 612h-1c-.081-1.916-.14-3.833-.187-5.75l-.106-3.234c.344-3.545 1.23-7.016 5.293-7.016" fill="#d1d7de"/>
  <path d="M417 591c5.415-.37 5.415-.37 8.375 1.5L427 594h-2l-1 2-7-4z" fill="#4f6579"/>
  <path d="m143 530 1 2c-.672 1.91-.672 1.91-1.75 4.063l-1.047 2.16C140 540 140 540 137 541c1.45-4.11 3.511-7.433 6-11" fill="#3b5575"/>
  <path d="M624 206c1.047 3.402 1.377 6.452 1 10-2.02 1.684-2.02 1.684-4 3q.465-2.407.938-4.812l.527-2.708C623 209 623 209 624 206" fill="#566b7f"/>
  <path d="m611 749 2 1-2.937 2.688c-2.664 2.638-3.836 4.455-4.063 8.312h-1c-.375-3.187-.375-3.187 0-7 1.812-2.14 3.658-3.39 6-5" fill="#d7dfe6"/>
  <path d="M870 490c3.719.507 6.735 1.116 10 3v2l-10-3z" fill="#1a375a"/>
  <path d="M634 463a271 271 0 0 1 3.5 2.813l1.969 1.582C641 469 641 469 641 472c-4.026-1.342-4.883-3.423-7-7z" fill="#415b6e"/>
  <path d="m434 842 3 1v7l-2 1c-1.478-2.957-1.06-5.742-1-9" fill="#c5d0dd"/>
  <path d="M137 810h2l-1 3c-.226 2.393-.408 4.79-.562 7.188l-.254 3.855L137 827h-1a1890 1890 0 0 1-.062-7.937l-.026-2.288c-.009-1.925.036-3.85.088-5.775z" fill="#bec8d1"/>
  <path d="m939 753 2 1-9 9-1-3z" fill="#d7dfe5"/>
  <path d="m271 646 2 1-8 8-2-2z" fill="#3c597a"/>
  <path d="m321 592 2 1Zm-3.812.938L321 593c-2.607 2.607-4.376 2.704-8 3l-3-2c2.75-.917 4.36-1.109 7.188-1.062" fill="#25405f"/>
  <path d="M601 436v2c-3.508 1.604-6.144 2.22-10 2 1-2 1-2 3.875-3.125C598 436 598 436 601 436" fill="#1a3759"/>
  <path d="M895 904h1c.081 1.603.14 3.208.188 4.813l.105 2.707c-.342 2.896-1.047 3.706-3.293 5.48a438 438 0 0 1 2-13" fill="#4a627e"/>
  <path d="M536 870c1.472 3.827.57 6.31-1 10a60 60 0 0 1-3 3l1.438-4.812.808-2.708A215 215 0 0 1 536 870" fill="#586f8a"/>
  <path d="m206 664 2 1-2.812 1.813c-2.39 1.64-4.273 3.059-6.188 5.187l-2-1c5.482-5.787 5.482-5.787 9-7" fill="#c6cfd7"/>
  <path d="m232 556 2 1-8 8c0-3 0-3 2.438-5.625L231 557z" fill="#425d7c"/>
  <path d="M417 480c-1.75 2.063-1.75 2.063-4 4-2.25-.25-2.25-.25-4-1 2.466-3.115 4.108-3.316 8-3" fill="#2f4a69"/>
  <path d="M767 331c1.41 2.818.509 4.173-.437 7.125l-.872 2.758L765 343c-1.062-1.875-1.062-1.875-2-4l1-2h2l-.625-1.875L765 333z" fill="#334d69"/>
  <path d="M473 262c2.063.688 2.063.688 4 2 .75 2.125.75 2.125 1 4-2.884-1.293-4.872-2.66-7-5z" fill="#536878"/>
  <path d="m481 850 12 1v1l-12 1z" fill="#395572"/>
  <path d="m67 797 2 1-8 7-2-1z" fill="#3b5879"/>
  <path d="M458 780c1 2 1 2 .438 4.5L458 787l2 2-5-1c.547-3.375 1.055-5.082 3-8" fill="#cdd6e0"/>
  <path d="M472 667c2.375.688 2.375.688 5 2 1.313 2.625 1.313 2.625 2 5-5.875-3.625-5.875-3.625-7-7" fill="#2c4968"/>
  <path d="M640 414h5a141 141 0 0 1-5 5h-2v-3h2z" fill="#30495c"/>
  <path d="m820 245 4 1c-.312 1.938-.312 1.938-1 4l-3 1z" fill="#123150"/>
  <path d="m400 239 2 1c-2.574 3.861-4.61 3.943-9 5v-2l3-1 1-2z" fill="#294463"/>
  <path d="m376 949 2 1v8l-1-3h-2z" fill="#6e8392"/>
  <path d="m964 730 3 2-7 5c.96-3.837 1.236-4.597 4-7" fill="#2a4867"/>
  <path d="m547 611 2 1-1.937 2.375c-2.044 2.42-2.044 2.42-3.063 4.625l-2-1c.398-2.886.79-3.822 3.063-5.75z" fill="#d2dae1"/>
  <path d="m319 594 3 1-2 4-4-1 1-3z" fill="#163556"/>
  <path d="M438 580h10v3c-6.625-.75-6.625-.75-10-3" fill="#536984"/>
  <path d="m626 579 1 3-6 5c.542-3.796 2.201-5.472 5-8" fill="#2b4768"/>
  <path d="m310 576-1 2c-2.649.594-5.292.742-8 1 2.61-3.48 4.831-3.278 9-3" fill="#193659"/>
  <path d="M916 515h3c-.312 2.375-.312 2.375-1 5l-3 2c0-2.621.313-4.51 1-7" fill="#244360"/>
  <path d="M405 508c-2.622 2.154-4.644 3.4-8 4 1-3 1-3 2.875-4.25C402 507 402 507 405 508" fill="#294565"/>
  <path d="M282 300h7v5c-2 0-2 0-3.5-1.375L284 302z" fill="#314b68"/>
  <path d="m409 255 2 1c-2.174 2.5-3.73 3.436-7 4v-3c2.375-1.062 2.375-1.062 5-2" fill="#c4cdd9"/>
  <path d="M514 241c3.242.35 4.615.562 6.813 3.063L522 246c-5.75-1.875-5.75-1.875-8-3z" fill="#4c6271"/>
  <path d="M454 942h2l1 8h-2z" fill="#324e6f"/>
  <path d="M307 783h2c-1.443 3.366-3.333 5.51-6 8l-2-1a418 418 0 0 1 2.875-3.5l1.617-1.969z" fill="#e0e6ea"/>
  <path d="m704 617-1 3h-7c1-2 1-2 2.875-2.625C701 617 701 617 704 617" fill="#153457"/>
  <path d="m430 594 9 2c-3 2-3 2-5.687 1.625L431 597z" fill="#37536e"/>
  <path d="M333 589v2l-4 2v-2h-5c3.135-1.858 5.375-2.201 9-2" fill="#4b5d73"/>
  <path d="M215 583c5.538-.37 5.538-.37 7.875 1.5L224 586c-6.75-.75-6.75-.75-9-3" fill="#133259"/>
  <path d="M587 538h2c-1.293 2.884-2.66 4.872-5 7l-2-1a159 159 0 0 1 5-6" fill="#445f7c"/>
  <path d="m465 479 4 1c-4.75 4.875-4.75 4.875-7 6 1.875-4.75 1.875-4.75 3-7" fill="#c3ccd6"/>
  <path d="m604 338 2 1-6 7-1-4z" fill="#ccd4dc"/>
  <path d="M821 250h2l-3 9-2-3 1-2h2l-1-3z" fill="#264362"/>
</svg>
